<?xml version="1.0" standalone="no"?>
<!DOCTYPE svg PUBLIC "-//W3C//DTD SVG 1.1//EN" "http://www.w3.org/Graphics/SVG/1.1/DTD/svg11.dtd" >
<svg xmlns="http://www.w3.org/2000/svg">
<metadata></metadata>
<defs>
<font id="clanotmedium" horiz-adv-x="1320" >
<font-face units-per-em="2048" ascent="1612" descent="-436" />
<missing-glyph horiz-adv-x="577" />
<glyph unicode="&#xfb01;" horiz-adv-x="1443" d="M55 1034v199h168v53q0 155 103.5 251.5t310.5 96.5q97 0 172 -22l-6 -176q-46 12 -111 12q-209 0 -209 -168v-47h766v-1233h-264v1034h-502v-1034h-260v1034h-168zM963 1520q0 122 155 122q81 0 119.5 -30t38.5 -92t-38.5 -91.5t-119.5 -29.5q-80 0 -117.5 27.5 t-37.5 93.5z" />
<glyph unicode="&#xfb02;" horiz-adv-x="1378" d="M55 1034v199h166v49q0 62 16.5 113.5t55.5 97.5t99 77.5t151.5 49.5t208.5 18q93 0 235.5 -14.5t212.5 -17.5v-1606h-262v1442q-132 16 -188 16q-146 0 -206.5 -46t-60.5 -138v-41h226v-199h-226v-1034h-260v1034h-168z" />
<glyph horiz-adv-x="0" />
<glyph horiz-adv-x="0" />
<glyph horiz-adv-x="682" />
<glyph unicode="&#xd;" horiz-adv-x="577" />
<glyph unicode=" "  horiz-adv-x="577" />
<glyph unicode="&#x09;" horiz-adv-x="577" />
<glyph unicode="&#xa0;" horiz-adv-x="577" />
<glyph unicode="!" horiz-adv-x="620" d="M162 117q0 141 153 141q154 0 154 -141q0 -140 -154 -140q-79 0 -116 33t-37 107zM168 1536h283l-41 -1104h-201z" />
<glyph unicode="&#x22;" horiz-adv-x="839" d="M109 1573h253l-47 -531h-170zM502 1573h254l-47 -531h-170z" />
<glyph unicode="#" horiz-adv-x="1304" d="M92 406v206h223l52 312h-273v204h301l62 408h207l-62 -408h203l61 408h203l-61 -408h202v-204h-229l-51 -312h278l2 -206h-307l-61 -406h-203l59 406h-202l-62 -406h-207l62 406h-197zM524 612h205l49 312h-203z" />
<glyph unicode="$" horiz-adv-x="1220" d="M98 1122q0 210 138.5 322.5t404.5 116.5l16 133l160 -15l-16 -127q159 -20 250 -61l-19 -242q-127 43 -264 58l-53 -404q70 -25 122 -48.5t110 -63t95 -85t61.5 -114t24.5 -150.5q0 -239 -128.5 -353t-405.5 -118l-19 -139l-145 14l16 134q-218 23 -346 96q4 31 14.5 115 t18.5 137q157 -89 342 -117l55 459q-75 27 -127.5 50t-114.5 62.5t-100 84t-64 110.5t-26 145zM338 1137q0 -66 57.5 -106.5t169.5 -78.5l45 363q-139 -3 -205.5 -51t-66.5 -127zM625 203q147 3 216.5 54t69.5 149q0 73 -59 119t-174 91z" />
<glyph unicode="%" horiz-adv-x="1486" d="M80 1200q0 188 72.5 272t234.5 84q155 0 230 -83t75 -273q0 -358 -307 -358q-157 0 -231 87.5t-74 270.5zM246 164l817 1317l151 -121l-817 -1315zM256 1202q0 -110 30 -150t101 -40q69 0 99 40t30 150q0 109 -30 150t-99 41q-70 0 -100.5 -40.5t-30.5 -150.5zM793 338 q0 189 72.5 275.5t234.5 86.5q156 0 231.5 -85.5t75.5 -276.5q0 -358 -307 -358q-158 0 -232.5 88t-74.5 270zM971 338q0 -106 30 -146t99 -40q71 0 101 39t30 147q0 109 -30 148.5t-101 39.5q-69 0 -99 -39.5t-30 -148.5z" />
<glyph unicode="&#x26;" horiz-adv-x="1447" d="M78 393q0 76 22 144t63 125.5t86.5 102t106.5 91.5q-131 203 -131 342q0 77 22.5 141t70 114.5t129.5 79t192 28.5q177 0 285 -81.5t108 -215.5q0 -40 -12 -79t-27 -69.5t-48 -67.5t-55 -59.5t-69.5 -60t-70 -54t-76.5 -55.5q144 -168 311 -305q83 143 115 291h223 q-10 -90 -50.5 -204t-107.5 -224q134 -92 265 -156l-93 -239q-158 78 -325 200q-212 -209 -492 -209q-116 0 -204 35t-138.5 95t-75 133t-24.5 157zM346 416q0 -94 58.5 -144.5t158.5 -50.5q142 0 268 107q-198 173 -342 348q-143 -129 -143 -260zM469 1198q0 -82 80 -211 q111 76 166.5 132t56.5 120q0 57 -38 87t-101 30q-74 0 -119 -41.5t-45 -116.5z" />
<glyph unicode="'" horiz-adv-x="446" d="M96 1573h254l-47 -531h-170z" />
<glyph unicode="(" horiz-adv-x="708" d="M174 674q0 565 326 948l202 -16q-278 -403 -278 -932q0 -524 276 -932l-200 -16q-156 174 -241 420.5t-85 527.5z" />
<glyph unicode=")" horiz-adv-x="706" d="M6 -258q277 405 277 932q0 259 -71 496t-206 436l201 16q325 -378 325 -948q0 -282 -84.5 -528.5t-240.5 -419.5z" />
<glyph unicode="*" horiz-adv-x="755" d="M41 1317l47 129l211 -53l18 219h125l19 -219l209 53l43 -129l-207 -82l127 -188l-96 -78l-154 174l-160 -174l-100 73l127 193z" />
<glyph unicode="+" horiz-adv-x="1228" d="M137 569v244h359v361h229v-361h365v-244h-365v-358h-229v358h-359z" />
<glyph unicode="," horiz-adv-x="528" d="M111 121q0 160 151 160q79 0 117.5 -41.5t38.5 -112.5q0 -79 -52.5 -204.5t-115.5 -215.5l-94 23l53 250q-40 16 -69 55t-29 86z" />
<glyph unicode="-" horiz-adv-x="813" d="M123 602v195h567v-195h-567z" />
<glyph unicode="." horiz-adv-x="534" d="M111 131q0 156 157 156q158 0 158 -156q0 -154 -158 -154q-84 0 -120.5 35.5t-36.5 118.5z" />
<glyph unicode="/" horiz-adv-x="925" d="M4 -252l696 1866h226l-703 -1866h-219z" />
<glyph unicode="0" d="M100 764q0 291 58.5 463.5t180 249.5t323.5 77q199 0 320 -76.5t180 -250t59 -463.5q0 -416 -133.5 -601.5t-428.5 -185.5q-297 0 -428 184.5t-131 602.5zM369 766q0 -137 11.5 -232.5t33 -156.5t59 -95.5t81.5 -47.5t108 -13q63 0 106.5 13.5t80 48t57.5 96.5 t32.5 157.5t11.5 231.5q0 134 -11.5 228.5t-32.5 155t-57.5 95t-80 47.5t-106.5 13q-64 0 -108.5 -13.5t-81.5 -48.5t-58.5 -96t-33 -155.5t-11.5 -227.5z" />
<glyph unicode="1" d="M268 1243l447 295h166v-1333h241v-205h-772v205h248v821l4 164l-4 4l-141 -88l-160 -96z" />
<glyph unicode="2" d="M158 1389q209 163 499 163q250 0 383.5 -117t133.5 -319q0 -72 -20.5 -143t-64 -142.5t-95 -136t-131.5 -142t-154 -142.5t-181 -154v-6h648l-7 -250h-1005v186q54 53 139 133.5t136 129t120.5 118t111 116t88.5 106t72 105.5t41.5 96.5t16.5 96.5q0 98 -69 155.5 t-212 57.5q-197 0 -383 -141z" />
<glyph unicode="3" d="M150 100l55 224q187 -107 401 -107q158 0 240 68t82 186q0 79 -40 128t-139.5 76t-267.5 27v201q157 0 251.5 27t131.5 74t37 120q0 91 -73.5 139t-211.5 48q-216 0 -397 -140l-67 220q91 73 216.5 117t264.5 44q248 0 385 -107t137 -300q0 -236 -227 -334v-4 q266 -83 266 -346q0 -226 -145 -352.5t-437 -126.5q-266 0 -462 118z" />
<glyph unicode="4" d="M98 487l639 1049h332v-989h174l-8 -238h-166v-309h-254v309h-692zM397 553l2 -6h424l11 573l8 166l-4 2l-84 -145l-271 -455z" />
<glyph unicode="5" d="M166 100l51 226q98 -56 186.5 -82.5t198.5 -26.5q163 0 236 71t73 216q0 125 -72 181t-227 56q-189 0 -331 -63l-101 108l64 750h858l10 -250h-653l-27 -346q132 33 258 33q241 0 367.5 -112.5t126.5 -334.5q0 -264 -137 -404t-418 -140q-268 0 -463 118z" />
<glyph unicode="6" d="M111 727q0 410 167 618.5t492 208.5q196 0 348 -59l-20 -240q-140 50 -295 50q-204 0 -306 -100.5t-122 -317.5l4 -4q152 108 344 108q243 0 363 -113t120 -343q0 -277 -136 -415t-396 -138q-140 0 -242.5 40t-175.5 127t-109 231t-36 347zM387 657q3 -244 68.5 -341 t216.5 -97q266 0 266 320q0 122 -63.5 179.5t-202.5 57.5q-75 0 -158 -33t-127 -86z" />
<glyph unicode="7" d="M117 1268l12 266h1083v-238l-608 -1296h-311l649 1268h-825z" />
<glyph unicode="8" d="M109 440q0 113 61.5 209t171.5 158q-178 116 -178 346q0 192 123 296.5t377 104.5q495 0 495 -403q0 -107 -49.5 -193.5t-140.5 -144.5v-4q114 -51 179.5 -138.5t65.5 -232.5q0 -227 -139 -341.5t-411 -114.5q-284 0 -419.5 114.5t-135.5 343.5zM371 438 q0 -123 70.5 -179t228.5 -56q278 0 278 217q0 46 -18.5 83.5t-47 63t-75 48.5t-88.5 38t-101 34q-11 3 -16.5 5t-14.5 5t-16 5q-200 -104 -200 -264zM418 1141q0 -33 10 -61t23 -48t40.5 -39.5t49 -31.5t62 -27t65.5 -23t73 -22q90 48 132 104.5t42 134.5q0 102 -61 152.5 t-192 50.5q-244 0 -244 -190z" />
<glyph unicode="9" d="M106 1055q0 237 133 368t398 131q273 0 419 -180.5t146 -537.5q0 -448 -155.5 -651t-477.5 -203q-117 0 -202 16.5t-172 54.5l38 230q151 -62 310 -62q196 0 288.5 109t106.5 354l-4 4q-130 -98 -338 -98q-244 0 -367 123.5t-123 341.5zM369 1065q0 -126 66.5 -190 t211.5 -64q193 0 285 117q-3 208 -79.5 298.5t-219.5 90.5q-264 0 -264 -252z" />
<glyph unicode=":" horiz-adv-x="534" d="M111 131q0 156 157 156q158 0 158 -156q0 -154 -158 -154q-84 0 -120.5 35.5t-36.5 118.5zM111 1010q0 155 157 155q158 0 158 -155q0 -154 -158 -154q-84 0 -120.5 35.5t-36.5 118.5z" />
<glyph unicode=";" horiz-adv-x="540" d="M117 121q0 160 151 160q79 0 117.5 -41.5t38.5 -112.5q0 -79 -52.5 -204.5t-115.5 -215.5l-94 23l53 250q-40 16 -69 55t-29 86zM117 1010q0 155 157 155q158 0 158 -155q0 -154 -158 -154q-84 0 -120.5 35.5t-36.5 118.5z" />
<glyph unicode="&#x3c;" horiz-adv-x="1228" d="M180 616v134l867 462l2 -266l-404 -192l-149 -68v-6l149 -68l404 -192v-256z" />
<glyph unicode="=" horiz-adv-x="1228" d="M154 373v209h919v-209h-919zM154 772v209h919v-209h-919z" />
<glyph unicode="&#x3e;" horiz-adv-x="1228" d="M180 164v256l402 190l151 68v6l-151 68l-402 194v266l869 -462v-134z" />
<glyph unicode="?" horiz-adv-x="1046" d="M53 1399q79 72 201.5 116t259.5 44q225 0 342 -100.5t117 -278.5q0 -166 -92.5 -287t-268.5 -213l-10 -248h-205l-16 346q166 95 245 175t79 184q0 86 -59 130t-167 44q-193 0 -332 -123zM346 117q0 141 154 141q153 0 153 -141q0 -140 -153 -140q-80 0 -117 33t-37 107z " />
<glyph unicode="@" horiz-adv-x="1798" d="M90 702q0 150 35.5 287t107 253.5t173.5 202.5t242.5 134.5t305.5 48.5q228 0 400.5 -102t263 -281t90.5 -409q0 -127 -22.5 -230.5t-61.5 -174t-92.5 -118t-114 -69t-127.5 -21.5q-185 0 -250 148q-114 -148 -288 -148q-127 0 -206 94.5t-79 276.5q0 156 59 293.5 t164 221t230 83.5q122 0 188 -84l31 70l143 -9l-90 -544q-6 -37 -6 -74q0 -152 127 -152q109 0 176 109t67 326q0 139 -39 255.5t-113 202.5t-190 134.5t-262 48.5q-139 0 -255 -39.5t-198.5 -110.5t-140 -168t-85 -212t-27.5 -243q0 -134 26.5 -250.5t83 -213.5t139 -166 t199.5 -107.5t260 -38.5q112 0 213 19t175.5 51.5t126 64.5t92.5 68l61 -137q-117 -97 -285.5 -157t-382.5 -60q-408 0 -636 247t-228 680zM682 596q0 -86 33 -132t96 -46q67 0 118 60.5t64 158.5l51 307q-35 62 -112 62q-103 0 -176.5 -125.5t-73.5 -284.5z" />
<glyph unicode="A" horiz-adv-x="1480" d="M23 0l546 1536h338l551 -1536h-317l-101 330h-614l-102 -330h-301zM500 569h467l-185 600l-43 160h-6l-47 -160z" />
<glyph unicode="B" horiz-adv-x="1411" d="M170 0v1536h596q239 0 360 -100.5t121 -288.5q0 -251 -207 -332v-4q265 -73 265 -369q0 -442 -523 -442h-612zM442 238h342q123 0 180.5 51t57.5 176q0 113 -57.5 164t-186.5 51h-336v-442zM442 895h326q107 0 158 49t51 152q0 106 -52 151t-169 45h-314v-397z" />
<glyph unicode="C" horiz-adv-x="1230" d="M104 780q0 394 169.5 588.5t525.5 194.5q91 0 190 -19.5t166 -48.5l-31 -248q-145 56 -311 56q-153 0 -241 -49t-129.5 -162.5t-41.5 -313.5q0 -159 22.5 -264t74 -169.5t128.5 -91t193 -26.5q160 0 309 66l33 -236q-78 -38 -180 -62t-199 -24q-346 0 -512 197.5 t-166 611.5z" />
<glyph unicode="D" horiz-adv-x="1505" d="M170 0v1536h553q357 0 516.5 -180t159.5 -582q0 -410 -164 -592t-508 -182h-557zM453 258h268q105 0 173 21t117.5 78t71 158.5t21.5 260.5q0 198 -39.5 307t-119.5 151t-224 42h-268v-1018z" />
<glyph unicode="E" horiz-adv-x="1271" d="M170 0v1536h983l4 -256h-704v-371h598v-231h-598v-426h737l-6 -252h-1014z" />
<glyph unicode="F" horiz-adv-x="1214" d="M170 0v1536h981l6 -262h-704v-393h587l-2 -248h-585v-633h-283z" />
<glyph unicode="G" horiz-adv-x="1386" d="M104 764q0 412 173 605.5t548 193.5q227 0 416 -72l-29 -252q-168 68 -372 68q-124 0 -205 -25.5t-135 -88.5t-76.5 -165t-22.5 -260q0 -208 40.5 -324t127 -164.5t240.5 -48.5q113 0 211 29v561h250v-764q-86 -39 -208 -62.5t-245 -23.5q-376 0 -544.5 193t-168.5 600z " />
<glyph unicode="H" horiz-adv-x="1529" d="M170 0v1536h283v-616h624v616h283v-1536h-283v659h-624v-659h-283z" />
<glyph unicode="I" horiz-adv-x="675" d="M195 0v1536h286v-1536h-286z" />
<glyph unicode="J" horiz-adv-x="1126" d="M70 45l18 246q95 -66 248 -66q332 0 332 324v987h288v-993q0 -572 -579 -572q-179 0 -307 74z" />
<glyph unicode="K" horiz-adv-x="1458" d="M170 0v1536h283v-627h196l414 627h330l-492 -729l518 -807h-344l-432 674h-190v-674h-283z" />
<glyph unicode="L" horiz-adv-x="1169" d="M170 0v1536h285v-1276h669l-6 -260h-948z" />
<glyph unicode="M" horiz-adv-x="1882" d="M170 0v1536h315l394 -979l59 -154h6l57 154l398 979h313v-1536h-258v887l4 166l-6 2l-59 -156l-361 -899h-192l-359 899l-59 156l-4 -2l2 -166v-887h-250z" />
<glyph unicode="N" horiz-adv-x="1540" d="M170 0v1536h246l612 -897l92 -137l4 2l-4 164v868h250v-1536h-199l-655 936l-92 139l-4 -2l2 -166v-907h-252z" />
<glyph unicode="O" horiz-adv-x="1525" d="M104 768q0 417 154.5 605t505.5 188q349 0 502 -187.5t153 -605.5q0 -423 -152.5 -610t-502.5 -187q-347 0 -503.5 190.5t-156.5 606.5zM401 768q0 -160 19 -263t64 -164.5t111 -85.5t169 -24q136 0 212 46.5t112 162.5t36 328q0 161 -18 263t-63 162.5t-110.5 83.5 t-170.5 23q-82 0 -139 -15t-101 -50t-69.5 -96.5t-38.5 -152t-13 -218.5z" />
<glyph unicode="P" horiz-adv-x="1347" d="M170 0v1536h532q300 0 435 -122.5t135 -385.5q0 -245 -136 -369t-434 -124h-249v-535h-283zM453 766h249q75 0 124.5 11.5t85.5 41t52.5 81t16.5 130.5q0 148 -63.5 206t-215.5 58h-249v-528z" />
<glyph unicode="Q" horiz-adv-x="1525" d="M104 768q0 417 154.5 605t505.5 188q349 0 502 -187.5t153 -605.5q0 -346 -101 -530.5t-325 -235.5v-6l133 -96l174 -129l-331 -84l-248 284q-324 10 -470.5 201t-146.5 596zM401 768q0 -160 19 -263t64 -164.5t111 -85.5t169 -24q136 0 212 46.5t112 162.5t36 328 q0 161 -18 263t-63 162.5t-110.5 83.5t-170.5 23q-82 0 -139 -15t-101 -50t-69.5 -96.5t-38.5 -152t-13 -218.5z" />
<glyph unicode="R" horiz-adv-x="1376" d="M170 0v1536h543q271 0 402.5 -113t131.5 -348q0 -169 -71.5 -276.5t-204.5 -139.5l379 -659h-332l-303 604h-262v-604h-283zM453 823h254q133 0 190 53.5t57 188.5q0 126 -55 177.5t-184 51.5h-262v-471z" />
<glyph unicode="S" horiz-adv-x="1173" d="M92 86l39 252q200 -115 422 -115q278 0 278 209q0 46 -25 82t-67.5 61t-97 46.5t-115.5 43t-121.5 46t-115 60t-97 80t-67.5 111t-25 148.5q0 96 32 176.5t95 143t167 98t239 35.5q235 0 420 -82l-37 -244q-194 70 -369 70q-146 0 -210 -50.5t-64 -132.5 q0 -56 40.5 -97.5t105 -68t142 -52t155.5 -60.5t142.5 -82t105 -127t40.5 -186q0 -224 -145 -352t-404 -128q-260 0 -463 115z" />
<glyph unicode="T" horiz-adv-x="1208" d="M29 1274l6 262h1139l6 -262h-432v-1274h-287v1274h-432z" />
<glyph unicode="U" horiz-adv-x="1497" d="M145 551v985h281v-983q0 -165 79 -242.5t245 -77.5t242.5 77t76.5 243v983h283v-985q0 -580 -602 -580q-605 0 -605 580z" />
<glyph unicode="V" horiz-adv-x="1437" d="M27 1536h311l340 -1106l45 -158h6l45 158l344 1106h293l-532 -1536h-320z" />
<glyph unicode="W" horiz-adv-x="2097" d="M74 1536h293l219 -1104l30 -162h7l30 162l248 1104h307l246 -1098l35 -162h6l29 162l219 1098h280l-364 -1536h-342l-234 1096l-30 164h-6l-33 -164l-234 -1096h-340z" />
<glyph unicode="X" horiz-adv-x="1443" d="M57 0l457 795l-444 741h338l237 -428l78 -145h6l76 145l235 428h324l-442 -735l467 -801h-324l-266 487l-74 148h-6l-74 -150l-258 -485h-330z" />
<glyph unicode="Y" horiz-adv-x="1402" d="M27 1536h319l295 -627l68 -149h6l63 151l289 625h309l-526 -1032v-504h-289v504z" />
<glyph unicode="Z" horiz-adv-x="1263" d="M84 0v188l647 951l94 131l-2 4h-721l11 262h1054v-213l-632 -928l-95 -129l2 -6h729l-4 -260h-1083z" />
<glyph unicode="[" horiz-adv-x="696" d="M174 -266v1882h516v-191h-278v-1505h278v-186h-516z" />
<glyph unicode="\" horiz-adv-x="778" d="M-8 1614h213l610 -1866h-211z" />
<glyph unicode="]" horiz-adv-x="696" d="M6 -82h281v1507h-281v191h516v-1882h-516v184z" />
<glyph unicode="^" d="M119 950l452 697h183l446 -697h-209l-332 500l-327 -500h-213z" />
<glyph unicode="_" horiz-adv-x="864" d="M41 -84h786v-164h-786v164z" />
<glyph unicode="`" horiz-adv-x="823" d="M184 1645h303l131 -297h-200z" />
<glyph unicode="a" horiz-adv-x="1181" d="M94 381q0 176 115.5 278.5t327.5 102.5q137 0 256 -39v92q0 115 -60 165t-198 50q-183 0 -342 -69l-23 215q180 79 412 79q254 0 361.5 -113t107.5 -366v-776h-199l-23 131l-6 2q-57 -73 -148 -113t-200 -40q-178 0 -279.5 100.5t-101.5 300.5zM340 385q0 -195 207 -195 q97 0 171.5 52t74.5 120v181q-77 35 -209 35q-244 0 -244 -193z" />
<glyph unicode="b" horiz-adv-x="1296" d="M158 0v1604l260 14v-320l-4 -163l6 -5q126 123 325 123q465 0 465 -635q0 -333 -127 -488t-368 -155q-105 0 -194 37t-150 101l-37 -113h-176zM418 315q35 -55 100.5 -90t155.5 -35q66 0 112.5 18t84 63.5t55.5 130.5t18 212q0 124 -17.5 205t-54 124.5t-83.5 60 t-117 16.5q-82 0 -148 -31.5t-106 -89.5v-584z" />
<glyph unicode="c" horiz-adv-x="1015" d="M84 618q0 315 133.5 474t415.5 159q166 0 299 -55l-17 -229q-110 47 -227 47q-185 0 -259.5 -90t-74.5 -306q0 -219 82 -317t246 -98q137 0 242 57l18 -209q-119 -78 -315 -78q-543 0 -543 645z" />
<glyph unicode="d" horiz-adv-x="1292" d="M84 621q0 311 117 472.5t354 161.5q196 0 324 -125l4 5l-4 163v306l260 14v-1618h-203l-29 117l-6 2q-119 -144 -344 -144q-243 0 -358 158t-115 488zM354 610q0 -236 59.5 -326.5t215.5 -90.5q96 0 158.5 35.5t91.5 86.5v588q-34 52 -99.5 82.5t-148.5 30.5 q-152 0 -214.5 -91t-62.5 -315z" />
<glyph unicode="e" horiz-adv-x="1191" d="M84 639q0 298 132.5 456t395.5 158q235 0 366.5 -142t131.5 -429q0 -70 -6 -125h-750q9 -190 93 -269t264 -79q176 0 331 67l31 -215q-171 -84 -393 -84q-309 0 -452.5 163.5t-143.5 498.5zM348 733h522q-6 299 -256 299q-133 0 -195 -70.5t-71 -228.5z" />
<glyph unicode="f" horiz-adv-x="827" d="M55 1034v199h166v53q0 156 104 252t312 96q104 0 190 -28l-16 -172q-65 14 -125 14q-203 0 -203 -168v-47h287v-199h-287v-1034h-260v1034h-168z" />
<glyph unicode="g" horiz-adv-x="1187" d="M104 -6q0 126 107 213q-96 61 -96 176q0 64 38.5 117t112.5 84l2 4q-141 90 -141 289q0 376 455 376q194 0 305 -71l205 73l55 -129l-137 -102q24 -62 24 -147q0 -183 -106.5 -276t-345.5 -93q-91 0 -162 14q-66 -26 -66 -73q0 -28 23.5 -46.5t68.5 -21.5l297 -21 q214 -15 306 -89.5t92 -215.5q0 -387 -547 -387q-248 0 -369 88t-121 238zM328 27q0 -158 260 -158q93 0 156.5 10.5t98 30.5t48.5 45.5t14 60.5q0 56 -43 83t-164 36l-297 23q-73 -61 -73 -131zM383 872q0 -101 50 -140.5t145 -39.5q117 0 161.5 41.5t44.5 138.5 q0 99 -46.5 140t-153.5 41q-108 0 -154.5 -43.5t-46.5 -137.5z" />
<glyph unicode="h" horiz-adv-x="1290" d="M158 0v1604l260 14v-315l-4 -164l6 -4q128 120 325 120t305.5 -119t108.5 -337v-799h-262v799q0 219 -233 219q-80 0 -146.5 -32t-99.5 -83v-903h-260z" />
<glyph unicode="i" horiz-adv-x="647" d="M168 1518q0 124 156 124q155 0 155 -124q0 -62 -38 -91.5t-117 -29.5q-80 0 -118 27.5t-38 93.5zM190 0v1225l265 14v-1239h-265z" />
<glyph unicode="j" horiz-adv-x="645" d="M-29 -305l15 188q40 -12 80 -12q60 0 94.5 33t34.5 102v1219l260 14v-1241q0 -91 -25 -156.5t-71 -102.5t-102.5 -54t-127.5 -17q-82 0 -158 27zM166 1520q0 122 156 122q79 0 116 -30t37 -92t-37 -91.5t-116 -29.5q-81 0 -118.5 27.5t-37.5 93.5z" />
<glyph unicode="k" horiz-adv-x="1236" d="M158 0v1604l260 14v-848h176l303 463h295l-375 -561l387 -672h-297l-313 553h-176v-553h-260z" />
<glyph unicode="l" horiz-adv-x="620" d="M178 0v1604l262 14v-1618h-262z" />
<glyph unicode="m" horiz-adv-x="1912" d="M147 0v1227l187 12l45 -123q64 65 146 101t171 36q237 0 330 -176q113 176 348 176q186 0 297 -114.5t111 -333.5v-805h-260v801q0 108 -56.5 161.5t-160.5 53.5q-93 0 -151 -51.5t-58 -149.5v-815h-260v815q0 104 -56 153.5t-153 49.5q-66 0 -126.5 -31t-92.5 -82v-905 h-261z" />
<glyph unicode="n" horiz-adv-x="1280" d="M147 0v1227l187 14l41 -119q142 133 350 133q198 0 311 -117.5t113 -338.5v-799h-260v797q0 114 -59.5 167.5t-176.5 53.5q-71 0 -139.5 -30.5t-105.5 -82.5v-905h-261z" />
<glyph unicode="o" horiz-adv-x="1269" d="M84 612q0 339 132.5 491t420.5 152t417.5 -151.5t129.5 -491.5q0 -341 -129 -491t-418 -150q-288 0 -420.5 150.5t-132.5 490.5zM354 612q0 -162 29 -254t89.5 -130t164.5 -38t163 38t87 129.5t28 254.5t-28 254.5t-87 129.5t-163 38q-105 0 -165 -38t-89 -129.5 t-29 -254.5z" />
<glyph unicode="p" horiz-adv-x="1286" d="M147 -309v1534l185 12l51 -117q139 133 348 133q117 0 201.5 -33t146 -106.5t91.5 -197t30 -298.5q0 -324 -126 -482.5t-353 -158.5q-197 0 -307 115l-6 -2l4 -166v-233h-265zM412 326q77 -125 243 -125q66 0 113.5 18t86 63t58 129.5t19.5 209.5q0 154 -30.5 242 t-87 121.5t-150.5 33.5q-168 0 -252 -121v-571z" />
<glyph unicode="q" horiz-adv-x="1286" d="M84 614q0 639 489 639q232 0 357 -143h6l33 121h166v-1540l-261 -2v229l5 166l-5 2q-119 -104 -307 -104q-228 0 -355.5 153.5t-127.5 478.5zM354 612q0 -224 64.5 -314.5t212.5 -90.5q99 0 165 39.5t78 89.5v563q-27 49 -93.5 82t-151.5 33q-104 0 -162 -35t-85.5 -122 t-27.5 -245z" />
<glyph unicode="r" horiz-adv-x="925" d="M147 0v1225l209 12l23 -231h6q57 119 148 182t206 63q76 0 129 -16l-16 -264q-65 20 -129 20q-137 0 -226 -100.5t-89 -269.5v-621h-261z" />
<glyph unicode="s" horiz-adv-x="1013" d="M96 889q0 166 115.5 265t335.5 99q186 0 342 -69l-23 -217q-149 63 -323 63q-92 0 -144.5 -35t-52.5 -96q0 -39 25.5 -67.5t67 -45.5t94.5 -35.5t109 -34.5t109 -44.5t94.5 -64.5t67 -95.5t25.5 -136.5q0 -188 -112 -294t-343 -106q-227 0 -383 93l31 221 q69 -45 166 -70.5t186 -25.5q108 0 160.5 43t52.5 114q0 37 -20.5 65.5t-55 47.5t-80 35.5t-95 32.5t-99 34.5t-95 46.5t-80 64t-55 90.5t-20.5 122.5z" />
<glyph unicode="t" horiz-adv-x="815" d="M55 1032v201h162l47 289l205 20v-309h289v-201h-289v-686q0 -153 162 -153q60 0 100 14l17 -195q-73 -32 -193 -32q-171 0 -258.5 93.5t-87.5 266.5v692h-154z" />
<glyph unicode="u" horiz-adv-x="1263" d="M131 422v811h260v-805q0 -215 242 -215q239 0 239 215v805h261v-811q0 -219 -125.5 -332t-376.5 -113q-250 0 -375 114.5t-125 330.5z" />
<glyph unicode="v" horiz-adv-x="1323" d="M49 1233h287l274 -844l49 -158h7l47 158l274 844h285l-459 -1233h-305z" />
<glyph unicode="w" horiz-adv-x="1806" d="M82 1233h262l172 -858l31 -162h6l31 162l188 858h275l192 -862l33 -162h6l27 164l165 860h254l-284 -1233h-324l-168 795l-30 163h-7l-32 -163l-177 -795h-319z" />
<glyph unicode="x" horiz-adv-x="1257" d="M61 0l385 623l-376 610h305l182 -340l76 -145h6l74 147l180 338h293l-365 -604l375 -629h-305l-195 360l-73 148h-7l-73 -150l-191 -358h-291z" />
<glyph unicode="y" horiz-adv-x="1323" d="M49 1233h299l305 -819l56 -156h6l41 160l239 815h279l-436 -1237q-66 -178 -166 -255t-250 -77q-116 0 -201 39l23 191q61 -31 133 -31q70 0 118.5 30t82.5 105l6 18z" />
<glyph unicode="z" horiz-adv-x="1105" d="M102 0v186l496 691l98 129l-2 4h-573l10 223h866v-186l-493 -693l-98 -127l2 -6h604l-8 -221h-902z" />
<glyph unicode="{" horiz-adv-x="776" d="M174 623v112q64 11 102.5 53.5t38.5 104.5q0 67 -17 199t-17 204q0 164 101.5 247t334.5 83h53v-199h-65q-97 0 -143 -44.5t-46 -120.5q0 -64 13.5 -177.5t13.5 -185.5q0 -74 -31.5 -131t-89.5 -86v-6q58 -31 89.5 -87t31.5 -128q0 -73 -13.5 -187t-13.5 -178 q0 -75 46.5 -120.5t142.5 -45.5h65v-198h-53q-233 0 -334.5 83t-101.5 246q0 72 17 204.5t17 199.5q0 62 -38.5 104.5t-102.5 53.5z" />
<glyph unicode="|" horiz-adv-x="585" d="M193 -365v2022h202v-2022h-202z" />
<glyph unicode="}" horiz-adv-x="776" d="M6 -70h66q95 0 141.5 45.5t46.5 120.5q0 64 -13.5 178t-13.5 187t31.5 128.5t91.5 86.5v6q-60 29 -91.5 85.5t-31.5 131.5q0 72 13.5 185.5t13.5 177.5q0 76 -46 120.5t-142 44.5h-66v199h53q233 0 334 -83t101 -247q0 -72 -16.5 -204t-16.5 -199q0 -62 38.5 -104.5 t102.5 -53.5v-112q-64 -11 -102.5 -53.5t-38.5 -104.5q0 -67 16.5 -199t16.5 -205q0 -164 -101 -246.5t-334 -82.5h-53v198z" />
<glyph unicode="~" d="M168 1237q24 352 283 352q53 0 114 -21.5t106 -47t99.5 -47t95.5 -21.5q100 0 133 111h152q-12 -175 -84.5 -263t-198.5 -88q-53 0 -113 21.5t-104.5 47.5t-97.5 47.5t-94 21.5q-55 0 -90.5 -30.5t-49.5 -82.5h-151z" />
<glyph unicode="&#xa1;" horiz-adv-x="618" d="M152 1219q0 139 153 139q79 0 116.5 -33t37.5 -106q0 -69 -38.5 -105.5t-115.5 -36.5q-153 0 -153 142zM172 -274l33 1192h211l33 -1192h-277z" />
<glyph unicode="&#xa2;" horiz-adv-x="1032" d="M92 618q0 290 113 448t352 181l18 248h203l-18 -254q94 -11 180 -45l-16 -229q-110 47 -228 47q-185 0 -259.5 -90t-74.5 -306q0 -219 82 -317t246 -98q137 0 242 57l18 -209q-90 -62 -237 -74l-17 -253h-204l16 260q-416 65 -416 634z" />
<glyph unicode="&#xa3;" horiz-adv-x="1292" d="M96 240q92 23 144.5 99t52.5 175q0 55 -12 141h-150l-12 215h102q-45 137 -45 238q0 94 30.5 172.5t96.5 143t183 101t276 36.5q211 0 387 -72l-35 -244q-149 62 -321 62q-171 0 -250.5 -62.5t-79.5 -167.5q0 -81 37 -207h526v-215h-475q10 -65 10 -127q0 -201 -143 -292 l4 -7q165 39 407 39q189 0 392 -26q-1 -3 -7 -126.5t-8 -129.5q-264 30 -510 30q-294 0 -587 -26z" />
<glyph unicode="&#xa4;" horiz-adv-x="1216" d="M135 422l133 137q-45 85 -45 184q0 110 53 199l-139 143l137 148l146 -150q87 52 188 52q102 0 189 -52l147 152l137 -150l-141 -147q51 -88 51 -195q0 -96 -43 -184l133 -135l-137 -150l-133 136q-92 -58 -203 -58q-110 0 -202 58l-134 -138zM395 748q0 -86 61.5 -144.5 t149.5 -58.5q89 0 150 58.5t61 144.5q0 85 -61 143.5t-150 58.5q-88 0 -149.5 -58.5t-61.5 -143.5z" />
<glyph unicode="&#xa5;" horiz-adv-x="1472" d="M98 1536h320l264 -670l57 -153h6l56 155l260 668h311l-407 -811h211v-152h-279v-94h279v-149h-279v-330h-309v330h-275v149h275v94h-275v152h205z" />
<glyph unicode="&#xa6;" horiz-adv-x="585" d="M193 -342v893h202v-893h-202zM193 764v893h202v-893h-202z" />
<glyph unicode="&#xa7;" horiz-adv-x="1159" d="M109 692q0 91 46 172t136 133q-150 107 -150 252q0 169 123 261t352 92q105 0 215 -23.5t185 -65.5l-23 -200q-176 80 -364 80q-106 0 -162.5 -34.5t-56.5 -98.5q0 -36 29 -68.5t76.5 -57.5t108 -54t124 -56.5t124 -67.5t108 -85.5t76.5 -112t29 -144.5q0 -92 -46 -173.5 t-138 -133.5q150 -110 150 -250q0 -169 -122 -260.5t-351 -91.5q-106 0 -215.5 23t-182.5 65l21 201q176 -80 362 -80q108 0 163.5 34.5t55.5 98.5q0 33 -23 61.5t-62 52.5t-89.5 47.5t-106 48.5t-111.5 53.5t-106.5 66t-89.5 81.5t-62 104t-23 130zM360 721q0 -44 21.5 -82 t77 -76.5t89 -57.5t119.5 -62q22 -11 33 -17q134 52 134 160q0 58 -52 112.5t-99.5 81.5t-159.5 83q-21 11 -31 16q-132 -53 -132 -158z" />
<glyph unicode="&#xa8;" horiz-adv-x="823" d="M123 1522q0 118 115 118q116 0 116 -118q0 -117 -116 -117q-60 0 -87.5 27t-27.5 90zM475 1522q0 118 117 118q115 0 115 -118q0 -117 -115 -117q-60 0 -88.5 27t-28.5 90z" />
<glyph unicode="&#xa9;" horiz-adv-x="1816" d="M104 776q0 217 108 401.5t293.5 292t403.5 107.5q163 0 311.5 -63.5t256 -171t171.5 -255.5t64 -311q0 -218 -108 -403.5t-293 -293.5t-402 -108q-218 0 -403.5 108t-293.5 293.5t-108 403.5zM240 776q0 -178 87.5 -330.5t242.5 -243.5t339 -91q137 0 262 52.5t214.5 142 t142.5 212.5t53 258q0 131 -53 252t-142.5 209.5t-214.5 141.5t-262 53q-138 0 -263 -53t-213.5 -141.5t-140.5 -209t-52 -252.5zM397 774q0 103 36 197t102 166t166.5 114.5t220.5 42.5q99 0 183 -29.5t142 -76.5q-14 -140 -20 -189q-46 26 -113 43t-125 17 q-157 0 -243.5 -78t-86.5 -205q0 -133 88.5 -212t245.5 -79q68 0 135 19t115 47q14 -82 27 -182q-63 -53 -157 -90t-191 -37q-151 0 -271.5 70t-187 191.5t-66.5 270.5z" />
<glyph unicode="&#xaa;" horiz-adv-x="886" d="M80 1022q0 134 84 214.5t233 80.5q94 0 170 -29v62q0 74 -41 105.5t-137 31.5q-120 0 -235 -49l-19 186q143 62 299 62q192 0 272 -88t80 -285v-590h-172l-18 90l-6 2q-82 -104 -232 -104q-131 0 -204.5 77.5t-73.5 233.5zM289 1024q0 -127 129 -127q60 0 103.5 33.5 t43.5 77.5v125q-40 20 -125 20q-151 0 -151 -129z" />
<glyph unicode="&#xab;" horiz-adv-x="1308" d="M49 651v21l619 422v-209l-359 -223l359 -226v-207zM535 651v21l618 422v-209l-358 -223l358 -226v-207z" />
<glyph unicode="&#xac;" d="M211 580v231h899v-543h-213v312h-686z" />
<glyph unicode="&#xad;" horiz-adv-x="813" d="M123 602v195h567v-195h-567z" />
<glyph unicode="&#xae;" horiz-adv-x="909" d="M76 1325q0 160 111.5 273.5t269.5 113.5q157 0 268 -113.5t111 -273.5q0 -158 -111 -270.5t-268 -112.5q-158 0 -269.5 112.5t-111.5 270.5zM150 1325q0 -125 90.5 -215t216.5 -90t215.5 90t89.5 215q0 127 -89.5 216t-215.5 89q-127 0 -217 -89t-90 -216zM289 1126v416 h186q172 0 172 -135q0 -40 -19 -71t-55 -44l82 -166h-116l-68 152h-72v-152h-110zM399 1352h84q28 0 43 13.5t15 35.5q0 49 -64 49h-78v-98z" />
<glyph unicode="&#xaf;" horiz-adv-x="823" d="M106 1423v166h621v-166h-621z" />
<glyph unicode="&#xb0;" horiz-adv-x="712" d="M80 1393q0 117 79.5 198.5t196.5 81.5q116 0 196.5 -81.5t80.5 -198.5q0 -116 -81 -198.5t-196 -82.5t-195.5 82.5t-80.5 198.5zM201 1393q0 -63 44.5 -106.5t110.5 -43.5t111 43t45 107q0 66 -44.5 108.5t-111.5 42.5t-111 -43.5t-44 -107.5z" />
<glyph unicode="&#xb1;" d="M195 96v201h927v-201h-927zM195 690v225h346v336h231v-336h354v-225h-354v-317h-231v317h-346z" />
<glyph unicode="&#xb2;" horiz-adv-x="745" d="M76 1743q132 86 299 86q149 0 225 -66t76 -178q0 -46 -17.5 -90.5t-44.5 -81t-75.5 -79.5t-93.5 -77t-117 -83v-7h348l-2 -157h-588v123q40 36 103.5 90.5t97 84t76.5 71t64 69t36.5 60t15.5 61.5q0 44 -34 71t-105 27q-101 0 -219 -74z" />
<glyph unicode="&#xb3;" horiz-adv-x="745" d="M70 1067l41 143q103 -59 233 -59q78 0 117 29.5t39 81.5q0 54 -50 78t-186 24v129q128 0 175.5 24t47.5 74q0 84 -141 84q-127 0 -233 -71l-43 139q123 86 284 86q147 0 228.5 -59t81.5 -164q0 -122 -123 -172v-4q141 -42 141 -179q0 -121 -83 -186.5t-255 -65.5 q-155 0 -274 68z" />
<glyph unicode="&#xb4;" horiz-adv-x="823" d="M303 1348l135 297h303l-239 -297h-199z" />
<glyph unicode="&#xb5;" horiz-adv-x="1280" d="M147 -324v1557h263l-2 -803q0 -100 68 -157.5t179 -57.5q105 0 168.5 50t63.5 143v825h260v-1227l-184 -16l-35 100h-6q-40 -52 -107.5 -81t-150.5 -29q-93 0 -167.5 38t-119.5 113l-4 -2q15 -281 28 -432z" />
<glyph unicode="&#xb6;" horiz-adv-x="1398" d="M72 1266q0 120 84.5 195t234.5 75h922l-10 -217h-156v-1638h-229v1638h-312l2 -1638h-229v1292q-139 6 -223 81.5t-84 211.5z" />
<glyph unicode="&#xb7;" horiz-adv-x="593" d="M139 707q0 155 158 155t158 -155q0 -154 -158 -154q-84 0 -121 35.5t-37 118.5z" />
<glyph unicode="&#xb8;" horiz-adv-x="823" d="M236 -389l139 407l172 5l-74 -412h-237z" />
<glyph unicode="&#xb9;" horiz-adv-x="571" d="M78 1653l254 168h117v-811h-189v422l6 161l-6 2l-166 -96z" />
<glyph unicode="&#xba;" horiz-adv-x="968" d="M84 1198q0 259 96.5 373.5t304.5 114.5q211 0 305.5 -113.5t94.5 -374.5q0 -262 -94.5 -374.5t-305.5 -112.5q-210 0 -305.5 113t-95.5 374zM313 1198q0 -119 17.5 -183.5t53.5 -89t101 -24.5t101 24.5t53.5 89t17.5 183.5q0 174 -37.5 234.5t-134.5 60.5t-134.5 -60.5 t-37.5 -234.5z" />
<glyph unicode="&#xbb;" horiz-adv-x="1308" d="M131 229v207l356 226l-356 223v209l621 -422v-21zM614 229v207l357 226l-357 223v209l621 -422v-21z" />
<glyph unicode="&#xbc;" horiz-adv-x="1814" d="M223 1372l254 166h117v-809h-188v420l6 162l-6 2l-166 -96zM307 0l1024 1536h189l-1026 -1536h-187zM987 262l377 545h227v-502h90l-6 -151h-84v-154h-174v154h-416zM1200 311l2 -6h219l4 174l9 164h-7l-135 -201z" />
<glyph unicode="&#xbd;" horiz-adv-x="1814" d="M225 1372l254 166h117v-809h-188v420l6 162l-6 2l-166 -96zM281 0l1024 1536h188l-1026 -1536h-186zM1087 733q128 84 299 84q149 0 225.5 -66t76.5 -176q0 -46 -17.5 -90.5t-44.5 -80.5t-76 -79.5t-94 -77t-117 -83.5v-6h349l-2 -158h-588v123q40 36 103.5 90.5t97 84 t76.5 71t64 69t36.5 60t15.5 61.5q0 44 -34 71t-105 27q-102 0 -219 -73z" />
<glyph unicode="&#xbe;" horiz-adv-x="1814" d="M121 784l41 144q110 -60 233 -60q78 0 117 29.5t39 81.5q0 54 -50 79t-186 25v129q128 0 176 24t48 73q0 84 -142 84q-130 0 -233 -72l-43 139q118 86 285 86q147 0 228 -58.5t81 -164.5q0 -120 -123 -170v-4q141 -45 141 -178q0 -254 -338 -254q-157 0 -274 67zM299 0 l1024 1536h188l-1026 -1536h-186zM942 262l377 545h227v-502h90l-6 -151h-84v-154h-174v154h-416zM1155 311l2 -6h219l4 174l9 164h-7l-135 -201z" />
<glyph unicode="&#xbf;" horiz-adv-x="1001" d="M72 172q0 164 91.5 285.5t266.5 214.5l12 248h205l15 -349q-80 -45 -134.5 -82.5t-99.5 -81t-66.5 -91.5t-21.5 -103q0 -86 58.5 -130t166.5 -44q189 0 330 125l94 -213q-79 -71 -201.5 -114.5t-259.5 -43.5q-225 0 -340.5 99.5t-115.5 279.5zM391 1235q0 139 152 139 q80 0 116.5 -32.5t36.5 -106.5q0 -141 -153 -141q-152 0 -152 141z" />
<glyph unicode="&#xc0;" horiz-adv-x="1480" d="M23 0l546 1536h338l551 -1536h-317l-101 330h-614l-102 -330h-301zM412 1874h315l152 -244h-213zM500 569h467l-185 600l-43 160h-6l-47 -160z" />
<glyph unicode="&#xc1;" horiz-adv-x="1480" d="M23 0l546 1536h338l551 -1536h-317l-101 330h-614l-102 -330h-301zM500 569h467l-185 600l-43 160h-6l-47 -160zM592 1628l147 242h340l-276 -242h-211z" />
<glyph unicode="&#xc2;" horiz-adv-x="1480" d="M23 0l546 1536h338l551 -1536h-317l-101 330h-614l-102 -330h-301zM377 1626l219 246h278l228 -246h-236l-129 152l-129 -152h-231zM500 569h467l-185 600l-43 160h-6l-47 -160z" />
<glyph unicode="&#xc3;" horiz-adv-x="1480" d="M23 0l546 1536h338l551 -1536h-317l-101 330h-614l-102 -330h-301zM408 1636q6 105 58 170.5t138 65.5q55 0 109.5 -26t98.5 -51.5t73 -25.5q57 0 71 76l115 -2q-6 -106 -59 -169.5t-140 -63.5q-54 0 -106 25.5t-93.5 51t-70.5 25.5q-28 0 -48 -21t-26 -55h-120zM500 569 h467l-185 600l-43 160h-6l-47 -160z" />
<glyph unicode="&#xc4;" horiz-adv-x="1480" d="M23 0l546 1536h338l551 -1536h-317l-101 330h-614l-102 -330h-301zM422 1743q0 112 117 112q114 0 114 -112q0 -111 -114 -111q-60 0 -88.5 25.5t-28.5 85.5zM500 569h467l-185 600l-43 160h-6l-47 -160zM823 1743q0 112 115 112t115 -112q0 -111 -115 -111 q-59 0 -87 25.5t-28 85.5z" />
<glyph unicode="&#xc5;" horiz-adv-x="1480" d="M23 0l532 1499q-57 45 -57 148q0 188 235 188q122 0 181 -50t59 -138q0 -96 -55 -142l540 -1505h-317l-101 330h-614l-102 -330h-301zM500 569h467l-185 600l-43 160h-6l-47 -160zM635 1638q0 -36 22.5 -53.5t79.5 -17.5q55 0 78 17t23 54q0 76 -101 76q-56 0 -79 -19 t-23 -57z" />
<glyph unicode="&#xc6;" horiz-adv-x="2170" d="M61 0l840 1536h1159l6 -256h-720l28 -371h576v-231h-557l34 -426h662l-6 -252h-922l-24 332h-576l-164 -332h-336zM678 569h440l-45 613l-8 166l-6 2l-70 -152z" />
<glyph unicode="&#xc7;" horiz-adv-x="1230" d="M104 780q0 394 169.5 588.5t525.5 194.5q91 0 190 -19.5t166 -48.5l-31 -248q-145 56 -311 56q-153 0 -241 -49t-129.5 -162.5t-41.5 -313.5q0 -159 22.5 -264t74 -169.5t128.5 -91t193 -26.5q160 0 309 66l33 -236q-133 -67 -303 -82l-65 -364h-238l125 364 q-293 28 -434.5 225.5t-141.5 579.5z" />
<glyph unicode="&#xc8;" horiz-adv-x="1271" d="M170 0v1536h983l4 -256h-704v-371h598v-231h-598v-426h737l-6 -252h-1014zM354 1874h316l151 -244h-213z" />
<glyph unicode="&#xc9;" horiz-adv-x="1271" d="M170 0v1536h983l4 -256h-704v-371h598v-231h-598v-426h737l-6 -252h-1014zM532 1628l148 242h340l-277 -242h-211z" />
<glyph unicode="&#xca;" horiz-adv-x="1271" d="M170 0v1536h983l4 -256h-704v-371h598v-231h-598v-426h737l-6 -252h-1014zM317 1626l220 246h278l227 -246h-235l-129 152l-129 -152h-232z" />
<glyph unicode="&#xcb;" horiz-adv-x="1271" d="M170 0v1536h983l4 -256h-704v-371h598v-231h-598v-426h737l-6 -252h-1014zM362 1743q0 112 117 112q115 0 115 -112q0 -111 -115 -111q-60 0 -88.5 25.5t-28.5 85.5zM764 1743q0 112 115 112q114 0 114 -112q0 -56 -27.5 -83.5t-86.5 -27.5t-87 25.5t-28 85.5z" />
<glyph unicode="&#xcc;" horiz-adv-x="675" d="M12 1874h316l151 -244h-213zM195 0v1536h286v-1536h-286z" />
<glyph unicode="&#xcd;" horiz-adv-x="675" d="M193 1628l147 242h340l-277 -242h-210zM195 0v1536h286v-1536h-286z" />
<glyph unicode="&#xce;" horiz-adv-x="675" d="M-23 1626l220 246h278l227 -246h-235l-129 152l-129 -152h-232zM195 0v1536h286v-1536h-286z" />
<glyph unicode="&#xcf;" horiz-adv-x="675" d="M23 1743q0 112 116 112q115 0 115 -112q0 -111 -115 -111q-60 0 -88 25.5t-28 85.5zM195 0v1536h286v-1536h-286zM424 1743q0 112 115 112q114 0 114 -112q0 -56 -27.5 -83.5t-86.5 -27.5t-87 25.5t-28 85.5z" />
<glyph unicode="&#xd0;" horiz-adv-x="1523" d="M55 713v174h133v649h553q357 0 516.5 -180t159.5 -582q0 -410 -164 -592t-508 -182h-557v713h-133zM471 258h268q105 0 173 21t117.5 78t71 158.5t21.5 260.5q0 198 -39.5 307t-119.5 151t-224 42h-268v-389h191v-174h-191v-455z" />
<glyph unicode="&#xd1;" horiz-adv-x="1540" d="M170 0v1536h246l612 -897l92 -137l4 2l-4 164v868h250v-1536h-199l-655 936l-92 139l-4 -2l2 -166v-907h-252zM449 1636q6 105 58 170.5t138 65.5q55 0 109.5 -26t98.5 -51.5t73 -25.5q57 0 71 76l115 -2q-6 -106 -59 -169.5t-140 -63.5q-54 0 -106 25.5t-93.5 51 t-70.5 25.5q-28 0 -48 -21t-26 -55h-120z" />
<glyph unicode="&#xd2;" horiz-adv-x="1525" d="M104 768q0 417 154.5 605t505.5 188q349 0 502 -187.5t153 -605.5q0 -423 -152.5 -610t-502.5 -187q-347 0 -503.5 190.5t-156.5 606.5zM401 768q0 -160 19 -263t64 -164.5t111 -85.5t169 -24q136 0 212 46.5t112 162.5t36 328q0 161 -18 263t-63 162.5t-110.5 83.5 t-170.5 23q-82 0 -139 -15t-101 -50t-69.5 -96.5t-38.5 -152t-13 -218.5zM469 1874h315l152 -244h-213z" />
<glyph unicode="&#xd3;" horiz-adv-x="1525" d="M104 768q0 417 154.5 605t505.5 188q349 0 502 -187.5t153 -605.5q0 -423 -152.5 -610t-502.5 -187q-347 0 -503.5 190.5t-156.5 606.5zM401 768q0 -160 19 -263t64 -164.5t111 -85.5t169 -24q136 0 212 46.5t112 162.5t36 328q0 161 -18 263t-63 162.5t-110.5 83.5 t-170.5 23q-82 0 -139 -15t-101 -50t-69.5 -96.5t-38.5 -152t-13 -218.5zM618 1628l148 242h340l-277 -242h-211z" />
<glyph unicode="&#xd4;" horiz-adv-x="1525" d="M104 768q0 417 154.5 605t505.5 188q349 0 502 -187.5t153 -605.5q0 -423 -152.5 -610t-502.5 -187q-347 0 -503.5 190.5t-156.5 606.5zM401 768q0 -160 19 -263t64 -164.5t111 -85.5t169 -24q136 0 212 46.5t112 162.5t36 328q0 161 -18 263t-63 162.5t-110.5 83.5 t-170.5 23q-82 0 -139 -15t-101 -50t-69.5 -96.5t-38.5 -152t-13 -218.5zM403 1626l220 246h278l227 -246h-235l-129 152l-129 -152h-232z" />
<glyph unicode="&#xd5;" horiz-adv-x="1525" d="M104 768q0 417 154.5 605t505.5 188q349 0 502 -187.5t153 -605.5q0 -423 -152.5 -610t-502.5 -187q-347 0 -503.5 190.5t-156.5 606.5zM401 768q0 -160 19 -263t64 -164.5t111 -85.5t169 -24q136 0 212 46.5t112 162.5t36 328q0 161 -18 263t-63 162.5t-110.5 83.5 t-170.5 23q-82 0 -139 -15t-101 -50t-69.5 -96.5t-38.5 -152t-13 -218.5zM434 1636q6 105 58.5 170.5t138.5 65.5q55 0 109.5 -26t98 -51.5t72.5 -25.5q58 0 72 76l115 -2q-6 -106 -59 -169.5t-140 -63.5q-54 0 -106 25.5t-93.5 51t-70.5 25.5q-28 0 -48 -21t-26 -55h-121z " />
<glyph unicode="&#xd6;" horiz-adv-x="1525" d="M104 768q0 417 154.5 605t505.5 188q349 0 502 -187.5t153 -605.5q0 -423 -152.5 -610t-502.5 -187q-347 0 -503.5 190.5t-156.5 606.5zM401 768q0 -160 19 -263t64 -164.5t111 -85.5t169 -24q136 0 212 46.5t112 162.5t36 328q0 161 -18 263t-63 162.5t-110.5 83.5 t-170.5 23q-82 0 -139 -15t-101 -50t-69.5 -96.5t-38.5 -152t-13 -218.5zM449 1743q0 112 116 112q115 0 115 -112q0 -111 -115 -111q-60 0 -88 25.5t-28 85.5zM850 1743q0 112 115 112q114 0 114 -112q0 -56 -27.5 -83.5t-86.5 -27.5t-87 25.5t-28 85.5z" />
<glyph unicode="&#xd7;" horiz-adv-x="1228" d="M174 961l152 165l290 -284l289 284l150 -165l-289 -285l285 -281l-150 -164l-287 281l-284 -281l-152 164l287 281z" />
<glyph unicode="&#xd8;" horiz-adv-x="1525" d="M84 94l119 152q-99 185 -99 522q0 417 154.5 605t505.5 188q300 0 453 -138l116 140l135 -131l-135 -164q88 -186 88 -500q0 -423 -152.5 -610t-504.5 -187q-286 0 -440 127l-105 -131zM401 768q0 -179 23 -291h4l104 127l508 594q-41 55 -108 78.5t-168 23.5 q-137 0 -213 -44.5t-113 -160t-37 -327.5zM496 326q77 -95 268 -95q136 0 212 46.5t112 162.5t36 328q0 150 -16 268l-4 2l-107 -129z" />
<glyph unicode="&#xd9;" horiz-adv-x="1497" d="M145 551v985h281v-983q0 -165 79 -242.5t245 -77.5t242.5 77t76.5 243v983h283v-985q0 -580 -602 -580q-605 0 -605 580zM424 1874h315l152 -244h-213z" />
<glyph unicode="&#xda;" horiz-adv-x="1497" d="M145 551v985h281v-983q0 -165 79 -242.5t245 -77.5t242.5 77t76.5 243v983h283v-985q0 -580 -602 -580q-605 0 -605 580zM602 1628l148 242h340l-277 -242h-211z" />
<glyph unicode="&#xdb;" horiz-adv-x="1497" d="M145 551v985h281v-983q0 -165 79 -242.5t245 -77.5t242.5 77t76.5 243v983h283v-985q0 -580 -602 -580q-605 0 -605 580zM389 1626l219 246h279l227 -246h-235l-129 152l-129 -152h-232z" />
<glyph unicode="&#xdc;" horiz-adv-x="1497" d="M145 551v985h281v-983q0 -165 79 -242.5t245 -77.5t242.5 77t76.5 243v983h283v-985q0 -580 -602 -580q-605 0 -605 580zM432 1743q0 112 117 112q115 0 115 -112q0 -111 -115 -111q-60 0 -88.5 25.5t-28.5 85.5zM834 1743q0 112 114 112q115 0 115 -112 q0 -111 -115 -111q-59 0 -86.5 25.5t-27.5 85.5z" />
<glyph unicode="&#xdd;" horiz-adv-x="1402" d="M27 1536h319l295 -627l68 -149h6l63 151l289 625h309l-526 -1032v-504h-289v504zM561 1628l148 242h340l-277 -242h-211z" />
<glyph unicode="&#xde;" horiz-adv-x="1349" d="M170 0v1536h283v-250h221q318 0 458 -122t140 -386q0 -247 -140.5 -371t-457.5 -124h-221v-283h-283zM453 516h221q169 0 239 55.5t70 208.5q0 149 -69.5 206.5t-241.5 57.5h-219v-528z" />
<glyph unicode="&#xdf;" horiz-adv-x="1325" d="M158 0v1014q0 270 128 409.5t376 139.5q180 0 294.5 -93.5t114.5 -232.5q0 -52 -23 -101t-56 -84.5t-66.5 -66t-56.5 -58t-23 -48.5q0 -18 22.5 -38t58.5 -40.5t79.5 -45.5t86.5 -59.5t79 -75t58.5 -99t22.5 -126.5q0 -189 -129.5 -301t-343.5 -112q-81 0 -163.5 17.5 t-137.5 53.5l17 228q94 -64 241 -64q113 0 181.5 43t68.5 129q0 60 -43.5 111t-105.5 88t-124 73.5t-105.5 83.5t-43.5 101q0 40 26 82t63.5 77.5l75 71t63.5 75t26 77.5q0 50 -44 81t-120 31q-121 0 -179 -73.5t-58 -229.5v-1038h-260z" />
<glyph unicode="&#xe0;" horiz-adv-x="1181" d="M94 381q0 176 115.5 278.5t327.5 102.5q137 0 256 -39v92q0 115 -60 165t-198 50q-183 0 -342 -69l-23 215q180 79 412 79q254 0 361.5 -113t107.5 -366v-776h-199l-23 131l-6 2q-57 -73 -148 -113t-200 -40q-178 0 -279.5 100.5t-101.5 300.5zM285 1645h303l131 -297 h-201zM340 385q0 -195 207 -195q97 0 171.5 52t74.5 120v181q-77 35 -209 35q-244 0 -244 -193z" />
<glyph unicode="&#xe1;" horiz-adv-x="1181" d="M94 381q0 176 115.5 278.5t327.5 102.5q137 0 256 -39v92q0 115 -60 165t-198 50q-183 0 -342 -69l-23 215q180 79 412 79q254 0 361.5 -113t107.5 -366v-776h-199l-23 131l-6 2q-57 -73 -148 -113t-200 -40q-178 0 -279.5 100.5t-101.5 300.5zM340 385q0 -195 207 -195 q97 0 171.5 52t74.5 120v181q-77 35 -209 35q-244 0 -244 -193zM436 1348l135 297h303l-239 -297h-199z" />
<glyph unicode="&#xe2;" horiz-adv-x="1181" d="M94 381q0 176 115.5 278.5t327.5 102.5q137 0 256 -39v92q0 115 -60 165t-198 50q-183 0 -342 -69l-23 215q180 79 412 79q254 0 361.5 -113t107.5 -366v-776h-199l-23 131l-6 2q-57 -73 -148 -113t-200 -40q-178 0 -279.5 100.5t-101.5 300.5zM264 1348l205 297h229 l209 -297h-198l-123 188l-125 -188h-197zM340 385q0 -195 207 -195q97 0 171.5 52t74.5 120v181q-77 35 -209 35q-244 0 -244 -193z" />
<glyph unicode="&#xe3;" horiz-adv-x="1181" d="M94 381q0 176 115.5 278.5t327.5 102.5q137 0 256 -39v92q0 115 -60 165t-198 50q-183 0 -342 -69l-23 215q180 79 412 79q254 0 361.5 -113t107.5 -366v-776h-199l-23 131l-6 2q-57 -73 -148 -113t-200 -40q-178 0 -279.5 100.5t-101.5 300.5zM258 1382q8 117 60 188.5 t137 71.5q45 0 86 -19t66.5 -41t57.5 -41t60 -19q56 0 78 98l121 -2q-6 -117 -60 -187.5t-137 -70.5q-43 0 -84 18.5t-67 41t-57.5 41t-59.5 18.5q-27 0 -48 -27.5t-30 -71.5zM340 385q0 -195 207 -195q97 0 171.5 52t74.5 120v181q-77 35 -209 35q-244 0 -244 -193z" />
<glyph unicode="&#xe4;" horiz-adv-x="1181" d="M94 381q0 176 115.5 278.5t327.5 102.5q137 0 256 -39v92q0 115 -60 165t-198 50q-183 0 -342 -69l-23 215q180 79 412 79q254 0 361.5 -113t107.5 -366v-776h-199l-23 131l-6 2q-57 -73 -148 -113t-200 -40q-178 0 -279.5 100.5t-101.5 300.5zM303 1522q0 118 115 118 q117 0 117 -118q0 -117 -117 -117q-60 0 -87.5 27t-27.5 90zM340 385q0 -195 207 -195q97 0 171.5 52t74.5 120v181q-77 35 -209 35q-244 0 -244 -193zM655 1522q0 118 117 118q115 0 115 -118q0 -117 -115 -117q-60 0 -88.5 27t-28.5 90z" />
<glyph unicode="&#xe5;" horiz-adv-x="1181" d="M94 381q0 176 115.5 278.5t327.5 102.5q137 0 256 -39v92q0 115 -60 165t-198 50q-183 0 -342 -69l-23 215q180 79 412 79q254 0 361.5 -113t107.5 -366v-776h-199l-23 131l-6 2q-57 -73 -148 -113t-200 -40q-178 0 -279.5 100.5t-101.5 300.5zM340 385q0 -195 207 -195 q97 0 171.5 52t74.5 120v181q-77 35 -209 35q-244 0 -244 -193zM354 1522q0 176 234 176q116 0 175.5 -47.5t59.5 -128.5q0 -176 -235 -176q-234 0 -234 176zM483 1522q0 -72 109 -72q106 0 106 72q0 71 -106 71q-109 0 -109 -71z" />
<glyph unicode="&#xe6;" horiz-adv-x="1875" d="M94 379q0 176 115.5 277.5t327.5 101.5q137 0 256 -39v94q0 115 -60 165t-198 50q-181 0 -342 -70l-23 216q191 79 412 79q270 0 364 -149q130 149 367 149q221 0 350 -143t129 -428q0 -70 -6 -125h-748q9 -190 93.5 -269t263.5 -79q172 0 331 72l29 -220 q-168 -84 -393 -84q-330 0 -461 197q-62 -94 -166 -145.5t-235 -51.5q-195 0 -300.5 100.5t-105.5 301.5zM338 383q0 -195 209 -195q105 0 175.5 56t70.5 143v154q-75 34 -209 34q-246 0 -246 -192zM1034 733h520q-6 299 -256 299q-133 0 -194.5 -70.5t-69.5 -228.5z" />
<glyph unicode="&#xe7;" horiz-adv-x="1015" d="M84 618q0 315 133.5 474t415.5 159q166 0 299 -55l-17 -229q-110 47 -227 47q-185 0 -259.5 -90t-74.5 -306q0 -219 82 -317t246 -98q137 0 242 57l18 -209q-90 -62 -242 -74l-65 -366h-238l125 369q-438 56 -438 638z" />
<glyph unicode="&#xe8;" horiz-adv-x="1191" d="M84 639q0 298 132.5 456t395.5 158q235 0 366.5 -142t131.5 -429q0 -70 -6 -125h-750q9 -190 93 -269t264 -79q176 0 331 67l31 -215q-171 -84 -393 -84q-309 0 -452.5 163.5t-143.5 498.5zM311 1645h303l131 -297h-200zM348 733h522q-6 299 -256 299q-133 0 -195 -70.5 t-71 -228.5z" />
<glyph unicode="&#xe9;" horiz-adv-x="1191" d="M84 639q0 298 132.5 456t395.5 158q235 0 366.5 -142t131.5 -429q0 -70 -6 -125h-750q9 -190 93 -269t264 -79q176 0 331 67l31 -215q-171 -84 -393 -84q-309 0 -452.5 163.5t-143.5 498.5zM348 733h522q-6 299 -256 299q-133 0 -195 -70.5t-71 -228.5zM463 1348l135 297 h303l-239 -297h-199z" />
<glyph unicode="&#xea;" horiz-adv-x="1191" d="M84 639q0 298 132.5 456t395.5 158q235 0 366.5 -142t131.5 -429q0 -70 -6 -125h-750q9 -190 93 -269t264 -79q176 0 331 67l31 -215q-171 -84 -393 -84q-309 0 -452.5 163.5t-143.5 498.5zM291 1348l205 297h229l209 -297h-199l-123 188l-125 -188h-196zM348 733h522 q-6 299 -256 299q-133 0 -195 -70.5t-71 -228.5z" />
<glyph unicode="&#xeb;" horiz-adv-x="1191" d="M84 639q0 298 132.5 456t395.5 158q235 0 366.5 -142t131.5 -429q0 -70 -6 -125h-750q9 -190 93 -269t264 -79q176 0 331 67l31 -215q-171 -84 -393 -84q-309 0 -452.5 163.5t-143.5 498.5zM305 1522q0 118 115 118q117 0 117 -118q0 -117 -117 -117q-60 0 -87.5 27 t-27.5 90zM348 733h522q-6 299 -256 299q-133 0 -195 -70.5t-71 -228.5zM657 1522q0 118 117 118q115 0 115 -118q0 -117 -115 -117q-60 0 -88.5 27t-28.5 90z" />
<glyph unicode="&#xec;" horiz-adv-x="647" d="M25 1645h303l131 -297h-201zM190 0v1225l265 14v-1239h-265z" />
<glyph unicode="&#xed;" horiz-adv-x="647" d="M176 1348l135 297h303l-239 -297h-199zM190 0v1225l265 14v-1239h-265z" />
<glyph unicode="&#xee;" horiz-adv-x="647" d="M4 1348l205 297h229l209 -297h-198l-123 188l-125 -188h-197zM190 0v1225l265 14v-1239h-265z" />
<glyph unicode="&#xef;" horiz-adv-x="647" d="M41 1522q0 118 115 118q116 0 116 -118q0 -117 -116 -117q-60 0 -87.5 27t-27.5 90zM190 0v1225l265 14v-1239h-265zM393 1522q0 118 117 118q115 0 115 -118q0 -117 -115 -117q-60 0 -88.5 27t-28.5 90z" />
<glyph unicode="&#xf0;" horiz-adv-x="1271" d="M84 582q0 279 120 417t365 138q167 0 277 -68l4 4q-75 125 -201 238l-180 -119l-94 102l160 109q-73 51 -185 113l178 124q89 -45 185 -116l170 114l90 -114l-150 -99q163 -157 263 -351t100 -390q0 -374 -134.5 -540.5t-412.5 -166.5q-105 0 -188 18t-153 61t-116.5 112 t-72 173t-25.5 241zM354 571q0 -110 17.5 -184t54.5 -114.5t86 -57t119 -16.5q145 0 214.5 101.5t69.5 326.5q0 150 -69.5 218t-212.5 68q-152 0 -215.5 -77t-63.5 -265z" />
<glyph unicode="&#xf1;" horiz-adv-x="1280" d="M147 0v1227l187 14l41 -119q142 133 350 133q198 0 311 -117.5t113 -338.5v-799h-260v797q0 114 -59.5 167.5t-176.5 53.5q-71 0 -139.5 -30.5t-105.5 -82.5v-905h-261zM324 1382q8 117 60 188.5t136 71.5q45 0 86.5 -19t67 -41t57.5 -41t60 -19q55 0 77 98l121 -2 q-6 -117 -59.5 -187.5t-136.5 -70.5q-43 0 -84 18.5t-67.5 41t-58 41t-59.5 18.5q-27 0 -48 -27.5t-30 -71.5z" />
<glyph unicode="&#xf2;" horiz-adv-x="1269" d="M84 612q0 339 132.5 491t420.5 152t417.5 -151.5t129.5 -491.5q0 -341 -129 -491t-418 -150q-288 0 -420.5 150.5t-132.5 490.5zM336 1645h303l131 -297h-201zM354 612q0 -162 29 -254t89.5 -130t164.5 -38t163 38t87 129.5t28 254.5t-28 254.5t-87 129.5t-163 38 q-105 0 -165 -38t-89 -129.5t-29 -254.5z" />
<glyph unicode="&#xf3;" horiz-adv-x="1269" d="M84 612q0 339 132.5 491t420.5 152t417.5 -151.5t129.5 -491.5q0 -341 -129 -491t-418 -150q-288 0 -420.5 150.5t-132.5 490.5zM354 612q0 -162 29 -254t89.5 -130t164.5 -38t163 38t87 129.5t28 254.5t-28 254.5t-87 129.5t-163 38q-105 0 -165 -38t-89 -129.5 t-29 -254.5zM487 1348l136 297h303l-240 -297h-199z" />
<glyph unicode="&#xf4;" horiz-adv-x="1269" d="M84 612q0 339 132.5 491t420.5 152t417.5 -151.5t129.5 -491.5q0 -341 -129 -491t-418 -150q-288 0 -420.5 150.5t-132.5 490.5zM315 1348l205 297h230l208 -297h-198l-123 188l-125 -188h-197zM354 612q0 -162 29 -254t89.5 -130t164.5 -38t163 38t87 129.5t28 254.5 t-28 254.5t-87 129.5t-163 38q-105 0 -165 -38t-89 -129.5t-29 -254.5z" />
<glyph unicode="&#xf5;" horiz-adv-x="1269" d="M84 612q0 339 132.5 491t420.5 152t417.5 -151.5t129.5 -491.5q0 -341 -129 -491t-418 -150q-288 0 -420.5 150.5t-132.5 490.5zM309 1382q8 117 60 188.5t137 71.5q45 0 86 -19t66.5 -41t57.5 -41t60 -19q56 0 78 98l121 -2q-6 -117 -60 -187.5t-137 -70.5 q-43 0 -84 18.5t-67 41t-57.5 41t-59.5 18.5q-27 0 -48 -27.5t-30 -71.5zM354 612q0 -162 29 -254t89.5 -130t164.5 -38t163 38t87 129.5t28 254.5t-28 254.5t-87 129.5t-163 38q-105 0 -165 -38t-89 -129.5t-29 -254.5z" />
<glyph unicode="&#xf6;" horiz-adv-x="1269" d="M84 612q0 339 132.5 491t420.5 152t417.5 -151.5t129.5 -491.5q0 -341 -129 -491t-418 -150q-288 0 -420.5 150.5t-132.5 490.5zM344 1522q0 118 115 118q116 0 116 -118q0 -117 -116 -117q-60 0 -87.5 27t-27.5 90zM354 612q0 -162 29 -254t89.5 -130t164.5 -38t163 38 t87 129.5t28 254.5t-28 254.5t-87 129.5t-163 38q-105 0 -165 -38t-89 -129.5t-29 -254.5zM696 1522q0 118 117 118q115 0 115 -118q0 -117 -115 -117q-60 0 -88.5 27t-28.5 90z" />
<glyph unicode="&#xf7;" horiz-adv-x="1228" d="M125 567v246h979v-246h-979zM446 322q0 137 168 137q166 0 166 -137q0 -136 -166 -136q-86 0 -127 30.5t-41 105.5zM446 1059q0 67 43 102t125 35q166 0 166 -137t-166 -137q-85 0 -126.5 31t-41.5 106z" />
<glyph unicode="&#xf8;" horiz-adv-x="1269" d="M72 84l90 115q-78 147 -78 413q0 339 132.5 491t418.5 152q223 0 350 -90l76 97l110 -105l-81 -104q94 -152 94 -441q0 -341 -130 -491t-419 -150q-244 0 -375 105l-80 -96zM352 612q0 -97 10 -182l5 -2l108 123l367 405q-64 78 -207 78q-105 0 -165 -38t-89 -129.5 t-29 -254.5zM410 291q33 -54 88 -77.5t139 -23.5q103 0 161.5 38t86.5 129.5t28 254.5q0 114 -14 217l-4 2l-111 -124z" />
<glyph unicode="&#xf9;" horiz-adv-x="1263" d="M131 422v811h260v-805q0 -215 242 -215q239 0 239 215v805h261v-811q0 -219 -125.5 -332t-376.5 -113q-250 0 -375 114.5t-125 330.5zM336 1645h303l131 -297h-201z" />
<glyph unicode="&#xfa;" horiz-adv-x="1263" d="M131 422v811h260v-805q0 -215 242 -215q239 0 239 215v805h261v-811q0 -219 -125.5 -332t-376.5 -113q-250 0 -375 114.5t-125 330.5zM485 1348l136 297h303l-240 -297h-199z" />
<glyph unicode="&#xfb;" horiz-adv-x="1263" d="M131 422v811h260v-805q0 -215 242 -215q239 0 239 215v805h261v-811q0 -219 -125.5 -332t-376.5 -113q-250 0 -375 114.5t-125 330.5zM313 1348l205 297h230l208 -297h-198l-123 188l-125 -188h-197z" />
<glyph unicode="&#xfc;" horiz-adv-x="1263" d="M131 422v811h260v-805q0 -215 242 -215q239 0 239 215v805h261v-811q0 -219 -125.5 -332t-376.5 -113q-250 0 -375 114.5t-125 330.5zM340 1522q0 118 115 118q116 0 116 -118q0 -117 -116 -117q-60 0 -87.5 27t-27.5 90zM692 1522q0 118 117 118q115 0 115 -118 q0 -117 -115 -117q-60 0 -88.5 27t-28.5 90z" />
<glyph unicode="&#xfd;" horiz-adv-x="1323" d="M49 1233h299l305 -819l56 -156h6l41 160l239 815h279l-436 -1237q-66 -178 -166 -255t-250 -77q-116 0 -201 39l23 191q61 -31 133 -31q70 0 118.5 30t82.5 105l6 18zM516 1348l135 297h303l-239 -297h-199z" />
<glyph unicode="&#xfe;" horiz-adv-x="1296" d="M158 -309v1913l262 14v-328l-4 -164l6 -4q134 131 336 131q110 0 191.5 -33t141 -106.5t89.5 -197t30 -298.5q0 -324 -124 -482.5t-351 -158.5q-197 0 -311 111l-6 -2l4 -166v-229h-264zM422 326q77 -125 244 -125q66 0 112.5 18t84.5 63t56.5 129.5t18.5 209.5 q0 154 -29.5 242t-85 121.5t-149.5 33.5q-168 0 -252 -121v-571z" />
<glyph unicode="&#xff;" horiz-adv-x="1323" d="M49 1233h299l305 -819l56 -156h6l41 160l239 815h279l-436 -1237q-66 -178 -166 -255t-250 -77q-116 0 -201 39l23 191q61 -31 133 -31q70 0 118.5 30t82.5 105l6 18zM373 1522q0 118 114 118q117 0 117 -118q0 -117 -117 -117q-60 0 -87 27t-27 90zM725 1522 q0 118 117 118q114 0 114 -118q0 -59 -27.5 -88t-86.5 -29q-60 0 -88.5 27t-28.5 90z" />
<glyph unicode="&#x152;" horiz-adv-x="2215" d="M104 768q0 414 146.5 603.5t462.5 189.5q291 0 426 -160h4v135h954l6 -256h-706v-371h598v-231h-598v-426h739l-6 -252h-987v147l-6 3q-131 -179 -426 -179q-311 0 -459 192.5t-148 604.5zM401 768q0 -160 19 -263t64 -164.5t111 -85.5t169 -24q136 0 211 46.5t110 162.5 t35 328q0 130 -12 219.5t-36.5 152.5t-68 98t-101 50t-140.5 15q-81 0 -138.5 -15t-101.5 -51t-69.5 -98t-38.5 -152.5t-13 -218.5z" />
<glyph unicode="&#x153;" horiz-adv-x="2029" d="M94 612q0 337 130.5 490t402.5 153q315 0 432 -188q120 186 399 186q229 0 359.5 -142.5t130.5 -428.5q0 -42 -9 -125h-745q9 -190 92.5 -269t261.5 -79q173 0 332 72l31 -220q-171 -84 -385 -84q-174 0 -285 49t-176 152q-58 -107 -165.5 -157t-272.5 -50 q-275 0 -404 151t-129 490zM365 612q0 -163 28.5 -254.5t88.5 -129.5t165 -38q104 0 163 38.5t86.5 129.5t27.5 254t-27.5 254t-86.5 129.5t-163 38.5q-105 0 -165 -38t-88.5 -129.5t-28.5 -254.5zM1188 733h520q-6 299 -256 299q-133 0 -194.5 -70.5t-69.5 -228.5z" />
<glyph unicode="&#x178;" horiz-adv-x="1402" d="M27 1536h319l295 -627l68 -149h6l63 151l289 625h309l-526 -1032v-504h-289v504zM391 1743q0 112 117 112q115 0 115 -112q0 -111 -115 -111q-60 0 -88.5 25.5t-28.5 85.5zM793 1743q0 112 114 112q115 0 115 -112q0 -111 -115 -111q-59 0 -86.5 25.5t-27.5 85.5z" />
<glyph unicode="&#x2c6;" horiz-adv-x="823" d="M92 1348l205 297h229l209 -297h-198l-123 188l-125 -188h-197z" />
<glyph unicode="&#x2dc;" horiz-adv-x="823" d="M92 1382q8 117 60 188.5t137 71.5q45 0 86 -19t66.5 -41t57.5 -41t60 -19q56 0 78 98l121 -2q-6 -117 -60 -187.5t-137 -70.5q-43 0 -84 18.5t-67 41t-57.5 41t-59.5 18.5q-27 0 -48 -27.5t-30 -71.5z" />
<glyph unicode="&#x2000;" horiz-adv-x="937" />
<glyph unicode="&#x2001;" horiz-adv-x="1874" />
<glyph unicode="&#x2002;" horiz-adv-x="937" />
<glyph unicode="&#x2003;" horiz-adv-x="1874" />
<glyph unicode="&#x2004;" horiz-adv-x="624" />
<glyph unicode="&#x2005;" horiz-adv-x="468" />
<glyph unicode="&#x2006;" horiz-adv-x="312" />
<glyph unicode="&#x2007;" horiz-adv-x="312" />
<glyph unicode="&#x2008;" horiz-adv-x="234" />
<glyph unicode="&#x2009;" horiz-adv-x="374" />
<glyph unicode="&#x200a;" horiz-adv-x="104" />
<glyph unicode="&#x2010;" horiz-adv-x="813" d="M123 602v195h567v-195h-567z" />
<glyph unicode="&#x2011;" horiz-adv-x="813" d="M123 602v195h567v-195h-567z" />
<glyph unicode="&#x2012;" horiz-adv-x="813" d="M123 602v195h567v-195h-567z" />
<glyph unicode="&#x2013;" horiz-adv-x="1073" d="M123 602v195h825v-195h-825z" />
<glyph unicode="&#x2014;" horiz-adv-x="1437" d="M123 602v195h1192v-195h-1192z" />
<glyph unicode="&#x2018;" horiz-adv-x="499" d="M96 1264q0 79 52.5 204t115.5 215l94 -22l-53 -250q40 -16 69 -55t29 -86q0 -160 -151 -160q-79 0 -117.5 41.5t-38.5 112.5z" />
<glyph unicode="&#x2019;" horiz-adv-x="499" d="M96 1446q0 74 36.5 117t115.5 43q78 0 116.5 -41.5t38.5 -112.5q0 -79 -52 -205t-115 -215l-95 23l54 250q-41 16 -70 55t-29 86z" />
<glyph unicode="&#x201a;" horiz-adv-x="499" d="M96 121q0 74 36.5 117t115.5 43q78 0 116.5 -41.5t38.5 -112.5q0 -79 -52 -205t-115 -215l-95 23l54 250q-41 16 -70 55t-29 86z" />
<glyph unicode="&#x201c;" horiz-adv-x="913" d="M96 1264q0 79 52.5 204t115.5 215l94 -22l-53 -250q40 -16 69 -55t29 -86q0 -160 -151 -160q-79 0 -117.5 41.5t-38.5 112.5zM510 1264q0 79 52.5 204t115.5 215l94 -22l-53 -250q40 -16 69 -55t29 -86q0 -160 -151 -160q-79 0 -117.5 41.5t-38.5 112.5z" />
<glyph unicode="&#x201d;" horiz-adv-x="913" d="M96 1446q0 74 36.5 117t115.5 43q78 0 116.5 -41.5t38.5 -112.5q0 -79 -52 -205t-115 -215l-95 23l54 250q-41 16 -70 55t-29 86zM510 1446q0 74 36.5 117t115.5 43q78 0 116.5 -41.5t38.5 -112.5q0 -79 -52.5 -204.5t-115.5 -215.5l-94 23l53 250q-40 16 -69 55t-29 86z " />
<glyph unicode="&#x201e;" horiz-adv-x="913" d="M96 121q0 74 36.5 117t115.5 43q78 0 116.5 -41.5t38.5 -112.5q0 -79 -52 -205t-115 -215l-95 23l54 250q-41 16 -70 55t-29 86zM510 121q0 74 36.5 117t115.5 43q78 0 116.5 -41.5t38.5 -112.5q0 -79 -52.5 -204.5t-115.5 -215.5l-94 23l53 250q-40 16 -69 55t-29 86z " />
<glyph unicode="&#x2022;" horiz-adv-x="839" d="M115 659q0 308 299 308q303 0 303 -308q0 -156 -75 -232.5t-228 -76.5q-151 0 -225 76t-74 233z" />
<glyph unicode="&#x2026;" horiz-adv-x="1433" d="M111 131q0 156 157 156q158 0 158 -156q0 -154 -158 -154q-84 0 -120.5 35.5t-36.5 118.5zM567 131q0 156 158 156t158 -156q0 -154 -158 -154q-84 0 -121 35.5t-37 118.5zM1008 131q0 156 157 156q158 0 158 -156q0 -154 -158 -154q-84 0 -120.5 35.5t-36.5 118.5z" />
<glyph unicode="&#x202f;" horiz-adv-x="374" />
<glyph unicode="&#x2039;" horiz-adv-x="817" d="M78 651v21l618 422v-209l-358 -223l358 -226v-207z" />
<glyph unicode="&#x203a;" horiz-adv-x="817" d="M121 229v207l356 226l-356 223v209l620 -422v-21z" />
<glyph unicode="&#x205f;" horiz-adv-x="468" />
<glyph unicode="&#x20ac;" horiz-adv-x="1310" d="M53 563v146h160v106h-160v152h172q39 276 201 427.5t430 151.5q212 0 352 -65l-51 -224q-113 46 -246 46q-178 0 -278.5 -82.5t-134.5 -253.5h565l-35 -152h-547v-106h508l-33 -146h-460q30 -190 131 -273t278 -83q155 0 301 76l21 -209q-158 -92 -385 -92 q-278 0 -428.5 142t-188.5 439h-172z" />
<glyph unicode="&#x2122;" horiz-adv-x="1390" d="M53 1421v142h488v-142h-164v-438h-160v438h-164zM612 983v580h197l96 -242l58 -154h6l55 156l94 240h189v-580h-136v236l5 165l-7 2l-57 -157l-94 -246h-115l-96 244l-57 155l-5 -2l3 -166v-231h-136z" />
<glyph unicode="&#x25fc;" horiz-adv-x="1228" d="M0 0v1229h1229v-1229h-1229z" />
</font>
</defs>
</svg>
